# xmcd
#
# Track frame offsets: 
#        150
#        12901
#        27760
#        41012
#        52663
#        68715
#        76848
#        89297
#        101565
#        113510
#
# Disc length: 1714 seconds
#
# Revision: 1
# Processed by: cddbd v1.5.2PL0 Copyright (c) Steve Scherf et al.
# Submitted via: ExactAudioCopy v0.95b4
#
DISCID=6706b00a
DTITLE=Ray Charlse - Going Down Slow [The Early Years]
DYEAR=2003
DGENRE=Blues
TTITLE0=Can Anyone Ask for More
TTITLE1=This Love of Mine
TTITLE2=Honey Honey
TTITLE3=How Long Blues
TTITLE4=I'm Wonderin' and Wonderin'
TTITLE5=Jammin' the Blues [Instrumental]
TTITLE6=Ray Charles Blues
TTITLE7=Going Down Slow (I've Had My Fun)
TTITLE8=I'll Do Anything But Work
TTITLE9=I'm Givin' Up
EXTD=
EXTT0=
EXTT1=
EXTT2=
EXTT3=
EXTT4=
EXTT5=
EXTT6=
EXTT7=
EXTT8=
EXTT9=
PLAYORDER=
